<svg width="20.000000" height="20.000000" viewBox="0 0 20 20" fill="#E2E2E2" xmlns="http://www.w3.org/2000/svg">

    <path id="Vector"
          d="M19.94 7.55C19.81 7.13 19.45 6.83 19.03 6.79L13.26 6.24L10.97 0.67C10.81 0.26 10.42 0 10 0C9.57 0 9.18 0.26 9.02 0.67L6.74 6.24L0.96 6.79C0.54 6.83 0.18 7.13 0.05 7.55C-0.08 7.97 0.04 8.44 0.36 8.73L4.72 12.72L3.43 18.64C3.34 19.07 3.5 19.52 3.85 19.78C4.03 19.92 4.25 20 4.47 20C4.66 20 4.85 19.94 5.02 19.84L10 16.73L14.97 19.84C15.34 20.07 15.8 20.04 16.14 19.78C16.49 19.52 16.65 19.07 16.56 18.64L15.27 12.72L19.63 8.73C19.95 8.44 20.07 7.98 19.94 7.55Z"
          fill-opacity="1.000000" fill-rule="nonzero"/>
    <path id="Vector" fill-opacity="0" fill-rule="evenodd"/>
</svg>
